<?xml version="1.0" ?><svg id="Layer_1" style="enable-background:new 0 0 68 68;" version="1.1" viewBox="0 0 68 68" xml:space="preserve" xmlns="http://www.w3.org/2000/svg" xmlns:xlink="http://www.w3.org/1999/xlink"><g id="_x31_00"><path d="M66,36.6C66,36.6,66,36.6,66,36.6C66,36.6,66,36.6,66,36.6c0-8-5.2-14.9-12.6-17.3c-0.2-6.1-6.5-10.2-12.1-8   c-2-5.2-7.1-8.7-12.7-8.7C21.7,2.6,16.1,7.4,15,14c-0.2,0-0.5,0-0.7,0C7.5,14,2,19.5,2,26.3C2,33,7.4,38.6,14.3,38.6h5v10.1   c0,1.1-0.9,2-2,2h-3.3c-0.4-1.8-2-3.1-3.9-3.1c-2.3,0-4.1,1.8-4.1,4.1c0,2.3,1.8,4.1,4.1,4.1c1.9,0,3.5-1.3,3.9-3.1h3.3   c2.2,0,4-1.8,4-4V38.6h4.9c0.6,0,1-0.4,1-1s-0.4-1-1-1H14.3C8.5,36.6,4,31.9,4,26.3C4,20.6,8.6,16,14.3,16c0.5,0,1,0,1.5,0.1   c0.5,0.1,1.1-0.3,1.2-0.9c0.5-6.1,5.5-10.6,11.6-10.6c0,0,0,0,0,0v4.8l-2.9,2.1c-0.3,0.2-0.4,0.5-0.4,0.8v4.3   c-1.8,0.4-3.1,2-3.1,3.9c0,2.3,1.8,4.1,4.1,4.1c2.2,0,4.1-1.8,4.1-4.1c0-1.9-1.3-3.5-3.1-3.9v-3.8l2.9-2.1c0.3-0.2,0.4-0.5,0.4-0.8   V4.8c4.3,0.8,7.9,3.9,9.1,8.2c0.2,0.6,0.9,0.9,1.5,0.6c4.1-2.3,9.6,0.2,10.2,5.2c-1.5-0.3-2.9-0.4-3.7-0.4   c-10.1,0.1-18,8.3-18,18.2c0,9.5,7.3,17.4,16.9,18.1l-4,7.5c-0.8,1.4,0.3,3.1,1.9,3.1h19.4c1.6,0,2.6-1.7,1.9-3.1l-6.2-11.7   C63.8,46.9,66,41.8,66,36.6z M10,53.8c-1.1,0-2.1-0.9-2.1-2.1c0-1.1,0.9-2.1,2.1-2.1c1.1,0,2.1,0.9,2.1,2.1   C12.1,52.9,11.1,53.8,10,53.8z M28.3,20.5c0,1.1-0.9,2.1-2.1,2.1c-1.1,0-2.1-0.9-2.1-2.1c0-1.1,0.9-2.1,2.1-2.1   C27.4,18.4,28.3,19.4,28.3,20.5z M55.4,35.6c-0.1-2.5-0.3-5-0.8-7.2c2.2-0.4,4.3-0.9,6-1.6c1.9,2.5,3.1,5.6,3.3,8.8H55.4z    M34.9,46.4c-1.9-2.6-3.1-5.6-3.3-8.8h8.5c0.1,2.5,0.3,5,0.8,7.2C38.7,45.2,36.6,45.7,34.9,46.4z M34.9,26.8c1.7,0.7,3.8,1.3,6,1.6   c-0.5,2.2-0.7,4.7-0.8,7.2h-8.5C31.8,32.4,33,29.3,34.9,26.8z M42.9,28.7c3.3,0.4,6.4,0.4,9.8,0c0.4,2.1,0.7,4.5,0.8,6.9H42.2   C42.2,33.2,42.5,30.8,42.9,28.7z M59.3,25.2c-1.5,0.5-3.2,1-5.1,1.3c-0.6-2.3-1.4-4.2-2.4-5.5C54.6,21.7,57.2,23.1,59.3,25.2z    M52.2,26.7c-2.9,0.3-5.8,0.3-8.8,0c1.1-3.8,2.8-6.3,4.4-6.3C49.4,20.4,51.1,22.9,52.2,26.7z M43.8,20.9c-1,1.4-1.8,3.2-2.4,5.5   c-1.9-0.3-3.6-0.7-5.1-1.3C38.4,23.1,41,21.7,43.8,20.9z M36.3,48c1.5-0.5,3.2-1,5.1-1.3c0.5,2,1.2,3.9,2.4,5.5   C41,51.6,38.4,50.1,36.3,48z M63.8,63.4H44.4c-0.1,0-0.2-0.1-0.1-0.2L54,44.9c0.1-0.1,0.2-0.1,0.2,0c2.4,4.5,7.1,13.5,9.7,18.3   C63.9,63.3,63.9,63.4,63.8,63.4z M58.5,48.7L56,43.9c-0.4-0.7-1.1-1.1-1.9-1.1c0,0,0,0,0,0c-0.8,0-1.5,0.4-1.9,1.1l-4.7,8.8   c-2.1-0.4-3.5-4.2-4.1-6.3c1.4-0.1,2.9-0.2,4.4-0.2c0.6,0,1-0.4,1-1s-0.4-1-1-1c-1.7,0-3.3,0.1-4.9,0.3c-0.4-2.1-0.7-4.5-0.8-6.9   h11.3c0,0.7,0,1.3-0.1,2c0,0.6,0.4,1,0.9,1.1c0.5,0,1-0.4,1.1-0.9c0-0.7,0.1-1.4,0.1-2.1H64C63.7,41.7,61.9,45.7,58.5,48.7z"/><path d="M10.3,30.5c0,0.5,0.4,1,1,1c0.6,0,1-0.4,1-1c0-0.5-0.4-1-1-1C10.7,29.5,10.3,30,10.3,30.5z"/><path d="M15.3,30.5c0,0.6,0.4,1,1,1c0.6,0,1-0.5,1-1c0-0.5-0.4-1-1-1C15.6,29.5,15.3,30,15.3,30.5z"/><path d="M20.3,30.5c0,0.6,0.4,1,1,1c0.6,0,1-0.4,1-1c0-0.6-0.4-1-1-1C20.6,29.5,20.3,30,20.3,30.5z"/><path d="M54.1,50.1c-0.6,0-1,0.4-1,1v5.8c0,0.6,0.4,1,1,1s1-0.4,1-1v-5.8C55.1,50.5,54.6,50.1,54.1,50.1z"/><path d="M54.1,59.2c-0.6,0-1,0.5-1,1c0,0.5,0.5,1,1,1c0.5,0,1-0.4,1-1C55.1,59.7,54.6,59.2,54.1,59.2z"/></g></svg>